<svg xmlns="http://www.w3.org/2000/svg" viewBox="0 0 100 100" width="100%" height="100%">
  <defs>
    <linearGradient id="connectly-logo-grad" x1="0%" y1="0%" x2="100%" y2="100%">
      <stop offset="0%" stop-color="#8B5CF6" />
      <stop offset="50%" stop-color="#EC4899" />
      <stop offset="100%" stop-color="#3B82F6" />
    </linearGradient>
    <filter id="logo-glow" x="-20%" y="-20%" width="140%" height="140%">
      <feGaussianBlur stdDeviation="4" result="blur" />
      <feComposite in="SourceGraphic" in2="blur" operator="over" />
    </filter>
  </defs>
  <!-- Stylized premium infinite link / connection icon -->
  <path 
    d="M 35 30 C 20 30 10 40 10 50 C 10 60 20 70 35 70 C 45 70 52 64 55 58 C 58 64 65 70 75 70 C 90 70 100 60 100 50 C 100 40 90 30 75 30 C 65 30 58 36 55 42 C 52 36 45 30 35 30 Z M 35 40 C 42 40 47 45 48 48 C 46 51 41 56 35 56 C 29 56 24 51 24 48 C 24 45 29 40 35 40 Z M 75 40 C 81 40 86 45 86 48 C 86 51 81 56 75 56 C 69 56 64 51 62 48 C 63 45 68 40 75 40 Z" 
    fill="url(#connectly-logo-grad)" 
  />
  <circle cx="55" cy="50" r="7" fill="#EC4899" />
</svg>
